# File created by Blade
# Date/Time:  Thu Jan 15 19:03:44 2015
#---------------------------------------------------------
:version 1.10
:name HOM
:units
  mass 1.0
  length 1.000000
  angle deg
:documentation
     Acclaim Skeleton File
:root
   axis xyz
   order TX TY TZ RX RY RZ
   position 0.000000 0.000000 0.000000
   orientation 0 0 0
:bonedata
   begin
      id 1
      name Spine_dum
      direction 0.000000 1.000000 0.000000
      length 4.354460
      axis 0.0 0.0 0.0 xyz
   end
   begin
      id 2
      name LeftUpLeg_dum
      direction 1.000000 0.000000 0.000000
      length 4.291077
      axis 0.0 0.0 0.0 xyz
   end
   begin
      id 3
      name RightUpLeg_dum
      direction -1.000000 0.000000 0.000000
      length 4.291077
      axis 0.0 0.0 0.0 xyz
   end
   begin
      id 4
      name Spine
      direction 0.000000 1.000000 0.000000
      length 0.000000
      axis 0.0 0.0 0.0 xyz
      dof rx ry rz
   end
   begin
      id 5
      name Spine_dum1
      direction 0.000000 1.000000 0.000000
      length 16.581769
      axis 0.0 0.0 0.0 xyz
   end
   begin
      id 6
      name Spine_dum2
      direction 0.000000 1.000000 0.000000
      length 12.903700
      axis 0.0 0.0 0.0 xyz
   end
   begin
      id 7
      name Spine_dum3
      direction 0.000000 1.000000 0.000000
      length 12.903700
      axis 0.0 0.0 0.0 xyz
   end
   begin
      id 8
      name Head
      direction 0.000000 1.000000 0.000000
      length 4.527550
      axis 0.0 0.0 0.0 xyz
      dof rx ry rz
   end
   begin
      id 9
      name LeftShoulder
      direction 1.000000 0.000000 0.000000
      length 6.942033
      axis 0.0 0.0 -90.0 xyz
      dof rx ry rz
   end
   begin
      id 10
      name LeftArm
      direction 1.000000 0.000000 0.000000
      length 11.010391
      axis 0.0 0.0 -90.0 xyz
      dof rx ry rz
   end
   begin
      id 11
      name LeftForeArm
      direction 1.000000 0.000000 0.000000
      length 8.054994
      axis 0.0 0.0 -90.0 xyz
      dof rz ry rx
   end
   begin
      id 12
      name LeftHand
      direction 0.000000 0.000000 0.000000
      length 0.000000
      axis 0.0 0.0 -90.0 xyz
      dof rx ry rz
   end
   begin
      id 13
      name LeftHand_dum1
      direction 0.000000 0.000000 0.000000
      length 0.000000
      axis 0.0 0.0 -90.0 xyz
   end
   begin
      id 14
      name LeftHand_dum2
      direction 1.000000 0.000000 0.000000
      length 3.937000
      axis 0.0 0.0 -90.0 xyz
   end
   begin
      id 15
      name LeftHandThumb1
      direction 0.000000 0.000000 1.000000
      length 3.937000
      axis 0.0 0.0 -90.0 xyz
      dof rx ry rz
   end
   begin
      id 16
      name RightShoulder
      direction -1.000000 0.000000 0.000000
      length 6.942033
      axis 0.0 0.0 90.0 xyz
      dof rx ry rz
   end
   begin
      id 17
      name RightArm
      direction -1.000000 0.000000 0.000000
      length 11.010391
      axis 0.0 0.0 90.0 xyz
      dof rx ry rz
   end
   begin
      id 18
      name RightForeArm
      direction -1.000000 0.000000 0.000000
      length 8.054994
      axis 0.0 0.0 90.0 xyz
      dof rz ry rx
   end
   begin
      id 19
      name RightHand
      direction 0.000000 0.000000 0.000000
      length 0.000000
      axis 0.0 0.0 90.0 xyz
      dof rx ry rz
   end
   begin
      id 20
      name RightHand_dum1
      direction 0.000000 0.000000 0.000000
      length 0.000000
      axis 0.0 0.0 90.0 xyz
   end
   begin
      id 21
      name RightHand_dum2
      direction -1.000000 0.000000 0.000000
      length 3.937000
      axis 0.0 0.0 90.0 xyz
   end
   begin
      id 22
      name RightHandThumb1
      direction 0.000000 0.000000 1.000000
      length 3.937000
      axis 0.0 0.0 90.0 xyz
      dof rx ry rz
   end
   begin
      id 23
      name LeftUpLeg
      direction 0.000000 -1.000000 0.000000
      length 17.039958
      axis 0.0 0.0 0.0 xyz
      dof rx ry rz
   end
   begin
      id 24
      name LeftLeg
      direction 0.000000 -1.000000 0.000000
      length 16.939743
      axis 0.0 0.0 0.0 xyz
      dof rx ry rz
   end
   begin
      id 25
      name LeftFoot
      direction 0.000000 -0.258819 0.965926
      length 5.235044
      axis 15.0 0.0 0.0 xyz
      dof rx ry rz
   end
   begin
      id 26
      name LeftToeBase
      direction 0.000000 0.000000 1.000000
      length 2.952750
      axis 0.0 0.0 0.0 xyz
      dof rx ry rz
   end
   begin
      id 27
      name RightUpLeg
      direction 0.000000 -1.000000 0.000000
      length 17.039958
      axis 0.0 0.0 0.0 xyz
      dof rx ry rz
   end
   begin
      id 28
      name RightLeg
      direction 0.000000 -1.000000 0.000000
      length 16.939743
      axis 0.0 0.0 0.0 xyz
      dof rx ry rz
   end
   begin
      id 29
      name RightFoot
      direction 0.000000 -0.258819 0.965926
      length 5.235044
      axis 15.0 0.0 0.0 xyz
      dof rx ry rz
   end
   begin
      id 30
      name RightToeBase
      direction 0.000000 0.000000 1.000000
      length 2.952750
      axis 0.0 0.0 0.0 xyz
      dof rx ry rz
   end
:hierarchy
   begin
      root Spine_dum LeftUpLeg_dum RightUpLeg_dum
      Spine_dum Spine
      LeftUpLeg_dum LeftUpLeg
      RightUpLeg_dum RightUpLeg
      Spine Spine_dum1 Spine_dum2 Spine_dum3
      Spine_dum1 Head
      Spine_dum2 LeftShoulder
      Spine_dum3 RightShoulder
      LeftShoulder LeftArm
      LeftArm LeftForeArm
      LeftForeArm LeftHand
      LeftHand LeftHand_dum1 LeftHand_dum2
      LeftHand_dum1 LeftHandThumb1
      RightShoulder RightArm
      RightArm RightForeArm
      RightForeArm RightHand
      RightHand RightHand_dum1 RightHand_dum2
      RightHand_dum1 RightHandThumb1
      LeftUpLeg LeftLeg
      LeftLeg LeftFoot
      LeftFoot LeftToeBase
      RightUpLeg RightLeg
      RightLeg RightFoot
      RightFoot RightToeBase
   end

# File created by Blade
# Date/Time:  Thu Jan 15 19:03:33 2015
# Frame Rate: 120.000 fps
#------------------------------------------------------
:FULLY-SPECIFIED
:DEGREES
292
root 2.193547 35.813872 -9.573334 -178.346441 0.977129 -179.944646
Spine -12.567619 13.036484 -4.991371
Head 1.648273 -10.115879 9.922416
LeftShoulder 16.266617 -12.407905 12.997175
LeftArm 94.959813 9.215254 -40.213140
LeftForeArm -0.000000 25.340091 4.428755
LeftHand 1.244794 -0.000000 -1.818161
LeftHandThumb1 -26.253704 33.147579 0.000000
RightShoulder 2.594750 19.021764 -12.064978
RightArm 62.858971 -8.911746 60.111560
RightForeArm 0.000000 -47.381917 16.344850
RightHand -1.799670 0.000000 0.993899
RightHandThumb1 -24.326973 -32.862282 -0.000000
LeftUpLeg 1.397693 11.915730 -2.516944
LeftLeg -1.723979 -0.000000 0.000000
LeftFoot -14.556525 22.757441 -9.245870
LeftToeBase 20.494884 -0.000000 -0.000000
RightUpLeg 0.421868 -9.745653 -0.554129
RightLeg -0.133943 -0.000000 0.000000
RightFoot -13.617149 -27.556749 7.423247
RightToeBase 20.556596 -0.000000 -0.000000
293
root 2.190676 35.813198 -9.579799 -178.378410 0.960557 -179.960887
Spine -12.623264 12.907104 -4.975152
Head 1.813794 -10.015398 9.911150
LeftShoulder 16.317203 -12.492520 13.064733
LeftArm 95.281878 9.146682 -39.942288
LeftForeArm -0.000000 25.902091 4.419441
LeftHand 1.410807 0.000000 -1.559013
LeftHandThumb1 -26.253704 33.147579 0.000000
RightShoulder 2.511751 19.159136 -12.270237
RightArm 62.857676 -8.790994 60.775434
RightForeArm 0.000000 -47.391582 16.463065
RightHand -1.978026 -0.000000 0.746862
RightHandThumb1 -24.326973 -32.862282 -0.000000
LeftUpLeg 1.432515 11.961918 -2.536492
LeftLeg -1.722578 -0.000000 0.000000
LeftFoot -14.544243 22.752065 -9.223331
LeftToeBase 20.486781 -0.000000 -0.000000
RightUpLeg 0.428689 -9.779175 -0.580365
RightLeg -0.057105 -0.000000 0.000000
RightFoot -13.640539 -27.562470 7.394809
RightToeBase 20.506332 -0.000000 -0.000000
294
root 2.190684 35.812239 -9.586085 -178.410846 0.932899 -179.970796
Spine -12.679229 12.769851 -4.966935
Head 1.973809 -9.924224 9.934615
LeftShoulder 16.340809 -12.578959 13.148428
LeftArm 95.604211 9.089704 -39.611039
LeftForeArm -0.000000 26.660861 4.311335
LeftHand 1.368761 -0.000000 -1.434293
LeftHandThumb1 -26.253704 33.147579 0.000000
RightShoulder 2.412953 19.267515 -12.431288
RightArm 62.863937 -8.743732 61.143060
RightForeArm -0.000000 -47.299681 16.602256
RightHand -2.004626 0.000000 0.707574
RightHandThumb1 -24.326973 -32.862282 -0.000000
LeftUpLeg 1.472687 11.988498 -2.538643
LeftLeg -1.723503 -0.000000 0.000000
LeftFoot -14.546567 22.713367 -9.218321
LeftToeBase 20.502916 -0.000000 -0.000000
RightUpLeg 0.453062 -9.767412 -0.594443
RightLeg -0.013246 -0.000000 0.000000
RightFoot -13.689722 -27.617464 7.382175
RightToeBase 20.552431 -0.000000 -0.000000
295
root 2.190568 35.811180 -9.592664 -178.443072 0.905165 -179.976968
Spine -12.737662 12.635935 -4.955269
Head 2.141329 -9.842909 9.957583
LeftShoulder 16.280209 -12.568671 13.276560
LeftArm 95.979418 8.974964 -39.215241
LeftForeArm -0.000000 27.170956 4.155162
LeftHand 1.494546 -0.000000 -1.231344
LeftHandThumb1 -26.253704 33.147579 0.000000
RightShoulder 2.297333 19.387926 -12.607929
RightArm 62.875558 -8.793659 61.272227
RightForeArm -0.000000 -47.410408 16.653235
RightHand -2.007420 0.000000 0.521668
RightHandThumb1 -24.326973 -32.862282 -0.000000
LeftUpLeg 1.514657 11.995414 -2.536508
LeftLeg -1.724934 -0.000000 0.000000
LeftFoot -14.549730 22.690276 -9.198256
LeftToeBase 20.507757 -0.000000 -0.000000
RightUpLeg 0.481243 -9.726428 -0.605181
RightLeg 0.024528 -0.000000 -0.000000
RightFoot -13.734643 -27.681491 7.393996
RightToeBase 20.536487 -0.000000 -0.000000
296
root 2.191046 35.810405 -9.598465 -178.463120 0.878530 -179.981439
Spine -12.809342 12.515224 -4.951295
Head 2.310417 -9.795997 9.986077
LeftShoulder 16.205453 -12.551982 13.403758
LeftArm 96.279302 8.837978 -38.812741
LeftForeArm -0.000000 27.389388 4.040144
LeftHand 1.346222 -0.000000 -1.396171
LeftHandThumb1 -26.253704 33.147579 0.000000
RightShoulder 2.166360 19.446514 -12.729889
RightArm 62.954724 -8.860932 61.132488
RightForeArm 0.000000 -47.387519 16.676616
RightHand -2.056454 -0.000000 0.753452
RightHandThumb1 -24.326973 -32.862282 -0.000000
LeftUpLeg 1.548830 12.001250 -2.533733
LeftLeg -1.738078 -0.000000 0.000000
LeftFoot -14.552948 22.657667 -9.192388
LeftToeBase 20.521003 -0.000000 -0.000000
RightUpLeg 0.501140 -9.679813 -0.611196
RightLeg 0.051010 -0.000000 -0.000000
RightFoot -13.773107 -27.754909 7.384115
RightToeBase 20.566496 -0.000000 -0.000000
297
root 2.192158 35.809285 -9.604811 -178.479555 0.848724 -179.988311
Spine -12.892727 12.380320 -4.956222
Head 2.486233 -9.777528 10.021293
LeftShoulder 16.074707 -12.429931 13.574967
LeftArm 96.591353 8.614064 -38.338221
LeftForeArm 0.000000 27.142179 3.904532
LeftHand 1.403091 -0.000000 -1.300737
LeftHandThumb1 -26.253704 33.147579 0.000000
RightShoulder 2.018761 19.493837 -12.851791
RightArm 63.011712 -9.008175 60.802982
RightForeArm -0.000000 -47.335392 16.724012
RightHand -1.909891 -0.000000 0.748393
RightHandThumb1 -24.326973 -32.862282 -0.000000
LeftUpLeg 1.577043 12.011923 -2.534108
LeftLeg -1.746484 -0.000000 0.000000
LeftFoot -14.549044 22.634937 -9.166417
LeftToeBase 20.521715 -0.000000 -0.000000
RightUpLeg 0.516981 -9.604664 -0.617728
RightLeg 0.083551 -0.000000 -0.000000
RightFoot -13.814721 -27.849198 7.392085
RightToeBase 20.554040 -0.000000 -0.000000
298
root 2.192877 35.808380 -9.610579 -178.495213 0.822716 -179.994268
Spine -12.981190 12.250422 -4.959992
Head 2.677497 -9.774552 10.058317
LeftShoulder 15.902481 -12.418392 13.760706
LeftArm 96.683744 8.525942 -38.050485
LeftForeArm 0.000000 26.884335 3.933654
LeftHand 1.371544 -0.000000 -1.550503
LeftHandThumb1 -26.253704 33.147579 0.000000
RightShoulder 1.853481 19.501211 -12.964419
RightArm 63.059616 -9.130726 60.385489
RightForeArm -0.000000 -47.244161 16.750554
RightHand -1.324070 -0.000000 0.699931
RightHandThumb1 -24.326973 -32.862282 -0.000000
LeftUpLeg 1.605198 12.016250 -2.534876
LeftLeg -1.756812 -0.000000 0.000000
LeftFoot -14.544533 22.612317 -9.157481
LeftToeBase 20.493385 -0.000000 -0.000000
RightUpLeg 0.530519 -9.558205 -0.624264
RightLeg 0.116752 -0.000000 -0.000000
RightFoot -13.855527 -27.913973 7.405376
RightToeBase 20.591768 -0.000000 -0.000000
299
root 2.194435 35.807108 -9.615973 -178.506192 0.795773 -179.994821
Spine -13.077337 12.164593 -4.968010
Head 2.863205 -9.837503 10.085150
LeftShoulder 15.758505 -12.240159 13.904622
LeftArm 96.800946 8.283116 -37.750385
LeftForeArm -0.000000 26.602052 3.981179
LeftHand 1.505828 -0.000000 -1.731211
LeftHandThumb1 -26.253704 33.147579 0.000000
RightShoulder 1.667546 19.498563 -13.066265
RightArm 63.063212 -9.285440 59.716009
RightForeArm -0.000000 -47.147605 16.851533
RightHand -0.815694 0.000000 0.947064
RightHandThumb1 -24.326973 -32.862282 -0.000000
LeftUpLeg 1.621808 12.000562 -2.528978
LeftLeg -1.754233 -0.000000 0.000000
LeftFoot -14.553174 22.605032 -9.136305
LeftToeBase 20.530950 -0.000000 -0.000000
RightUpLeg 0.540106 -9.509980 -0.625048
RightLeg 0.147116 -0.000000 -0.000000
RightFoot -13.898552 -27.983105 7.405806
RightToeBase 20.589730 -0.000000 -0.000000
300
root 2.195940 35.805607 -9.621388 -178.508746 0.778875 -179.991831
Spine -13.185901 12.073037 -4.972942
Head 3.068952 -9.881022 10.098298
LeftShoulder 15.559066 -12.108393 14.075675
LeftArm 96.790209 8.106850 -37.440663
LeftForeArm 0.000000 26.141064 4.121476
LeftHand 1.456810 -0.000000 -1.988431
LeftHandThumb1 -26.253704 33.147579 0.000000
RightShoulder 1.474619 19.499272 -13.169833
RightArm 63.005039 -9.444328 59.036503
RightForeArm -0.000000 -47.196486 16.976628
RightHand -0.467017 -0.000000 0.934918
RightHandThumb1 -24.326973 -32.862282 -0.000000
LeftUpLeg 1.634221 12.009297 -2.520930
LeftLeg -1.758982 -0.000000 0.000000
LeftFoot -14.554915 22.591133 -9.090184
LeftToeBase 20.546396 -0.000000 -0.000000
RightUpLeg 0.533510 -9.444558 -0.617688
RightLeg 0.189035 -0.000000 -0.000000
RightFoot -13.937059 -28.066816 7.389282
RightToeBase 20.641622 -0.000000 -0.000000
